<?xml version="1.0" encoding="UTF-8" standalone="no"?>
<!DOCTYPE svg PUBLIC "-//W3C//DTD SVG 1.1//EN" "http://www.w3.org/Graphics/SVG/1.1/DTD/svg11.dtd">
<!-- Generated by graphviz version 2.40.1 (20161225.0304)
 -->
<!-- Title: G Pages: 1 -->
<svg width="413pt" height="396pt" viewBox="0.00 0.00 413.32 395.56" xmlns="http://www.w3.org/2000/svg" xmlns:xlink="http://www.w3.org/1999/xlink">
<g id="graph0" class="graph" transform="scale(1 1) rotate(0) translate(4 391.5606)">
<title>G</title>
<polygon fill="#ffffff" stroke="transparent" points="-4,4 -4,-391.5606 409.3157,-391.5606 409.3157,4 -4,4"/>
<!-- jqt -->
<g id="node1" class="node">
<title>jqt</title>
<ellipse fill="none" stroke="#000000" cx="243" cy="-230.7185" rx="27" ry="18"/>
<text text-anchor="middle" x="243" y="-226.5185" font-family="Times,serif" font-size="14.00" fill="#000000">jqt</text>
</g>
<!-- rhn -->
<g id="node2" class="node">
<title>rhn</title>
<ellipse fill="none" stroke="#000000" cx="298.1552" cy="-276.9992" rx="27" ry="18"/>
<text text-anchor="middle" x="298.1552" y="-272.7992" font-family="Times,serif" font-size="14.00" fill="#000000">rhn</text>
</g>
<!-- jqt&#45;&gt;rhn -->
<g id="edge1" class="edge">
<title>jqt-&gt;rhn</title>
<path fill="none" stroke="#000000" d="M259.8481,-244.8557C264.0457,-248.3779 268.6362,-252.2298 273.1351,-256.0048"/>
<polygon fill="#000000" stroke="#000000" points="271.1194,-258.8824 281.0297,-262.6291 275.619,-253.5201 271.1194,-258.8824"/>
</g>
<!-- xhk -->
<g id="node3" class="node">
<title>xhk</title>
<ellipse fill="none" stroke="#000000" cx="230.4973" cy="-301.6246" rx="27" ry="18"/>
<text text-anchor="middle" x="230.4973" y="-297.4246" font-family="Times,serif" font-size="14.00" fill="#000000">xhk</text>
</g>
<!-- jqt&#45;&gt;xhk -->
<g id="edge2" class="edge">
<title>jqt-&gt;xhk</title>
<path fill="none" stroke="#000000" d="M239.845,-248.6111C238.5079,-256.1945 236.9179,-265.212 235.4318,-273.6397"/>
<polygon fill="#000000" stroke="#000000" points="231.9845,-273.0352 233.6948,-283.4911 238.8782,-274.2508 231.9845,-273.0352"/>
</g>
<!-- nvd -->
<g id="node4" class="node">
<title>nvd</title>
<ellipse fill="none" stroke="#000000" cx="187.8448" cy="-184.4378" rx="27" ry="18"/>
<text text-anchor="middle" x="187.8448" y="-180.2378" font-family="Times,serif" font-size="14.00" fill="#000000">nvd</text>
</g>
<!-- jqt&#45;&gt;nvd -->
<g id="edge3" class="edge">
<title>jqt-&gt;nvd</title>
<path fill="none" stroke="#000000" d="M226.1519,-216.5813C221.9543,-213.0591 217.3638,-209.2072 212.8649,-205.4321"/>
<polygon fill="#000000" stroke="#000000" points="214.8806,-202.5546 204.9703,-198.8078 210.381,-207.9169 214.8806,-202.5546"/>
</g>
<!-- rhn&#45;&gt;xhk -->
<g id="edge12" class="edge">
<title>rhn-&gt;xhk</title>
<path fill="none" stroke="#000000" d="M274.1111,-285.7505C270.8209,-286.9481 267.3956,-288.1948 263.975,-289.4397"/>
<polygon fill="#000000" stroke="#000000" points="262.6639,-286.1923 254.464,-292.9015 265.0581,-292.7701 262.6639,-286.1923"/>
</g>
<!-- hfx -->
<g id="node9" class="node">
<title>hfx</title>
<ellipse fill="none" stroke="#000000" cx="378.3157" cy="-279.9694" rx="27" ry="18"/>
<text text-anchor="middle" x="378.3157" y="-275.7694" font-family="Times,serif" font-size="14.00" fill="#000000">hfx</text>
</g>
<!-- rhn&#45;&gt;hfx -->
<g id="edge14" class="edge">
<title>rhn-&gt;hfx</title>
<path fill="none" stroke="#000000" d="M325.2939,-278.0048C330.3867,-278.1935 335.7917,-278.3937 341.128,-278.5915"/>
<polygon fill="#000000" stroke="#000000" points="341.0822,-282.0921 351.205,-278.9648 341.3415,-275.0969 341.0822,-282.0921"/>
</g>
<!-- bvb -->
<g id="node13" class="node">
<title>bvb</title>
<ellipse fill="none" stroke="#000000" cx="315" cy="-355.4261" rx="27" ry="18"/>
<text text-anchor="middle" x="315" y="-351.2261" font-family="Times,serif" font-size="14.00" fill="#000000">bvb</text>
</g>
<!-- rhn&#45;&gt;bvb -->
<g id="edge13" class="edge">
<title>rhn-&gt;bvb</title>
<path fill="none" stroke="#000000" d="M302.0621,-295.189C304.1391,-304.8591 306.7362,-316.951 309.0574,-327.7583"/>
<polygon fill="#000000" stroke="#000000" points="305.6504,-328.5633 311.1724,-337.6053 312.4943,-327.0933 305.6504,-328.5633"/>
</g>
<!-- xhk&#45;&gt;hfx -->
<g id="edge7" class="edge">
<title>xhk-&gt;hfx</title>
<path fill="none" stroke="#000000" d="M256.9243,-297.7531C280.5305,-294.2948 315.3434,-289.1948 341.6424,-285.342"/>
<polygon fill="#000000" stroke="#000000" points="342.2321,-288.793 351.6192,-283.8804 341.2174,-281.867 342.2321,-288.793"/>
</g>
<!-- lhk -->
<g id="node12" class="node">
<title>lhk</title>
<ellipse fill="none" stroke="#000000" cx="107.6843" cy="-279.9694" rx="27" ry="18"/>
<text text-anchor="middle" x="107.6843" y="-275.7694" font-family="Times,serif" font-size="14.00" fill="#000000">lhk</text>
</g>
<!-- nvd&#45;&gt;lhk -->
<g id="edge25" class="edge">
<title>nvd-&gt;lhk</title>
<path fill="none" stroke="#000000" d="M174.6079,-200.2129C161.8441,-215.4242 142.3584,-238.6463 127.699,-256.1168"/>
<polygon fill="#000000" stroke="#000000" points="124.6876,-254.2606 120.9408,-264.1708 130.0499,-258.7601 124.6876,-254.2606"/>
</g>
<!-- rsh -->
<g id="node5" class="node">
<title>rsh</title>
<ellipse fill="none" stroke="#000000" cx="77.5344" cy="-91.8764" rx="27" ry="18"/>
<text text-anchor="middle" x="77.5344" y="-87.6764" font-family="Times,serif" font-size="14.00" fill="#000000">rsh</text>
</g>
<!-- frs -->
<g id="node6" class="node">
<title>frs</title>
<ellipse fill="none" stroke="#000000" cx="77.5344" cy="-369.5606" rx="27" ry="18"/>
<text text-anchor="middle" x="77.5344" y="-365.3606" font-family="Times,serif" font-size="14.00" fill="#000000">frs</text>
</g>
<!-- rsh&#45;&gt;frs -->
<g id="edge4" class="edge">
<title>rsh-&gt;frs</title>
<path fill="none" stroke="#000000" d="M77.5344,-110.096C77.5344,-157.3643 77.5344,-284.1998 77.5344,-341.1695"/>
<polygon fill="#000000" stroke="#000000" points="74.0345,-341.2738 77.5344,-351.2739 81.0345,-341.2739 74.0345,-341.2738"/>
</g>
<!-- pzl -->
<g id="node7" class="node">
<title>pzl</title>
<ellipse fill="none" stroke="#000000" cx="132.6896" cy="-138.1571" rx="27" ry="18"/>
<text text-anchor="middle" x="132.6896" y="-133.9571" font-family="Times,serif" font-size="14.00" fill="#000000">pzl</text>
</g>
<!-- rsh&#45;&gt;pzl -->
<g id="edge5" class="edge">
<title>rsh-&gt;pzl</title>
<path fill="none" stroke="#000000" d="M94.3825,-106.0136C98.5801,-109.5358 103.1706,-113.3877 107.6695,-117.1627"/>
<polygon fill="#000000" stroke="#000000" points="105.6538,-120.0403 115.5641,-123.787 110.1534,-114.6779 105.6538,-120.0403"/>
</g>
<!-- lsr -->
<g id="node8" class="node">
<title>lsr</title>
<ellipse fill="none" stroke="#000000" cx="27" cy="-230.7185" rx="27" ry="18"/>
<text text-anchor="middle" x="27" y="-226.5185" font-family="Times,serif" font-size="14.00" fill="#000000">lsr</text>
</g>
<!-- rsh&#45;&gt;lsr -->
<g id="edge6" class="edge">
<title>rsh-&gt;lsr</title>
<path fill="none" stroke="#000000" d="M71.1342,-109.4608C62.5242,-133.1167 47.1234,-175.4298 36.9834,-203.2894"/>
<polygon fill="#000000" stroke="#000000" points="33.6392,-202.2442 33.5079,-212.8382 40.2171,-204.6384 33.6392,-202.2442"/>
</g>
<!-- frs&#45;&gt;lsr -->
<g id="edge33" class="edge">
<title>frs-&gt;lsr</title>
<path fill="none" stroke="#000000" d="M71.1342,-351.9761C62.5242,-328.3203 47.1234,-286.0072 36.9834,-258.1475"/>
<polygon fill="#000000" stroke="#000000" points="40.2171,-256.7985 33.5079,-248.5987 33.6392,-259.1927 40.2171,-256.7985"/>
</g>
<!-- qnr -->
<g id="node11" class="node">
<title>qnr</title>
<ellipse fill="none" stroke="#000000" cx="315" cy="-106.0108" rx="27" ry="18"/>
<text text-anchor="middle" x="315" y="-101.8108" font-family="Times,serif" font-size="14.00" fill="#000000">qnr</text>
</g>
<!-- frs&#45;&gt;qnr -->
<g id="edge31" class="edge">
<title>frs-&gt;qnr</title>
<path fill="none" stroke="#000000" d="M91.6778,-353.8636C131.851,-309.2776 246.7939,-181.709 294.1855,-129.1117"/>
<polygon fill="#000000" stroke="#000000" points="296.837,-131.3976 300.9307,-121.6255 291.6366,-126.7118 296.837,-131.3976"/>
</g>
<!-- frs&#45;&gt;lhk -->
<g id="edge32" class="edge">
<title>frs-&gt;lhk</title>
<path fill="none" stroke="#000000" d="M83.491,-351.8603C87.7857,-339.0987 93.6618,-321.6376 98.5475,-307.1197"/>
<polygon fill="#000000" stroke="#000000" points="101.8676,-308.227 101.74,-297.6329 95.2332,-305.9943 101.8676,-308.227"/>
</g>
<!-- pzl&#45;&gt;nvd -->
<g id="edge19" class="edge">
<title>pzl-&gt;nvd</title>
<path fill="none" stroke="#000000" d="M149.5377,-152.2943C153.7353,-155.8165 158.3258,-159.6684 162.8247,-163.4434"/>
<polygon fill="#000000" stroke="#000000" points="160.809,-166.321 170.7193,-170.0677 165.3086,-160.9587 160.809,-166.321"/>
</g>
<!-- pzl&#45;&gt;lsr -->
<g id="edge17" class="edge">
<title>pzl-&gt;lsr</title>
<path fill="none" stroke="#000000" d="M116.1756,-152.6198C98.7245,-167.9032 71.0281,-192.1593 51.1309,-209.585"/>
<polygon fill="#000000" stroke="#000000" points="48.615,-207.1359 43.398,-216.3573 53.2268,-212.4019 48.615,-207.1359"/>
</g>
<!-- pzl&#45;&gt;hfx -->
<g id="edge18" class="edge">
<title>pzl-&gt;hfx</title>
<path fill="none" stroke="#000000" d="M153.2091,-150.004C196.7354,-175.1339 298.4513,-233.8596 348.8869,-262.9786"/>
<polygon fill="#000000" stroke="#000000" points="347.2716,-266.0875 357.6819,-268.0564 350.7717,-260.0253 347.2716,-266.0875"/>
</g>
<!-- lsr&#45;&gt;lhk -->
<g id="edge26" class="edge">
<title>lsr-&gt;lhk</title>
<path fill="none" stroke="#000000" d="M46.9444,-242.8929C56.6422,-248.8125 68.474,-256.0348 79.1099,-262.5271"/>
<polygon fill="#000000" stroke="#000000" points="77.3306,-265.5415 87.6896,-267.7644 80.9777,-259.5667 77.3306,-265.5415"/>
</g>
<!-- cmg -->
<g id="node10" class="node">
<title>cmg</title>
<ellipse fill="none" stroke="#000000" cx="217.9947" cy="-88.9062" rx="27.8286" ry="18"/>
<text text-anchor="middle" x="217.9947" y="-84.7062" font-family="Times,serif" font-size="14.00" fill="#000000">cmg</text>
</g>
<!-- cmg&#45;&gt;nvd -->
<g id="edge9" class="edge">
<title>cmg-&gt;nvd</title>
<path fill="none" stroke="#000000" d="M212.3237,-106.8749C207.902,-120.8855 201.683,-140.5907 196.62,-156.6331"/>
<polygon fill="#000000" stroke="#000000" points="193.1624,-155.9598 193.4903,-166.5496 199.8378,-158.0666 193.1624,-155.9598"/>
</g>
<!-- cmg&#45;&gt;qnr -->
<g id="edge8" class="edge">
<title>cmg-&gt;qnr</title>
<path fill="none" stroke="#000000" d="M244.7586,-93.6254C255.235,-95.4726 267.4176,-97.6208 278.6665,-99.6042"/>
<polygon fill="#000000" stroke="#000000" points="278.2031,-103.0765 288.659,-101.3662 279.4187,-96.1828 278.2031,-103.0765"/>
</g>
<!-- cmg&#45;&gt;lhk -->
<g id="edge10" class="edge">
<title>cmg-&gt;lhk</title>
<path fill="none" stroke="#000000" d="M208.2054,-105.8617C188.8257,-139.4283 145.4709,-214.5211 122.5479,-254.2248"/>
<polygon fill="#000000" stroke="#000000" points="119.4206,-252.6415 117.4516,-263.0518 125.4828,-256.1415 119.4206,-252.6415"/>
</g>
<!-- cmg&#45;&gt;bvb -->
<g id="edge11" class="edge">
<title>cmg-&gt;bvb</title>
<path fill="none" stroke="#000000" d="M224.5101,-106.8071C241.1118,-152.4201 285.0918,-273.254 304.9813,-327.9"/>
<polygon fill="#000000" stroke="#000000" points="301.8037,-329.4032 308.5129,-337.6031 308.3816,-327.0091 301.8037,-329.4032"/>
</g>
<!-- qnr&#45;&gt;nvd -->
<g id="edge20" class="edge">
<title>qnr-&gt;nvd</title>
<path fill="none" stroke="#000000" d="M295.132,-118.265C274.0738,-131.2533 240.6157,-151.8896 216.6623,-166.6637"/>
<polygon fill="#000000" stroke="#000000" points="214.6668,-163.7822 207.9929,-172.0108 218.3416,-169.7401 214.6668,-163.7822"/>
</g>
<!-- bvb&#45;&gt;xhk -->
<g id="edge15" class="edge">
<title>bvb-&gt;xhk</title>
<path fill="none" stroke="#000000" d="M295.401,-342.9478C284.6001,-336.071 270.9952,-327.4089 259.0347,-319.7939"/>
<polygon fill="#000000" stroke="#000000" points="260.5979,-316.64 250.2828,-314.2217 256.8384,-322.5448 260.5979,-316.64"/>
</g>
<!-- bvb&#45;&gt;hfx -->
<g id="edge16" class="edge">
<title>bvb-&gt;hfx</title>
<path fill="none" stroke="#000000" d="M328.4276,-339.4237C337.2169,-328.9491 348.8499,-315.0854 358.6716,-303.3804"/>
<polygon fill="#000000" stroke="#000000" points="361.3778,-305.6002 365.1246,-295.69 356.0155,-301.1007 361.3778,-305.6002"/>
</g>
<!-- ntq -->
<g id="node14" class="node">
<title>ntq</title>
<ellipse fill="none" stroke="#000000" cx="310.6579" cy="-206.093" rx="27" ry="18"/>
<text text-anchor="middle" x="310.6579" y="-201.893" font-family="Times,serif" font-size="14.00" fill="#000000">ntq</text>
</g>
<!-- ntq&#45;&gt;jqt -->
<g id="edge21" class="edge">
<title>ntq-&gt;jqt</title>
<path fill="none" stroke="#000000" d="M286.6137,-214.8444C283.3235,-216.0419 279.8982,-217.2886 276.4777,-218.5336"/>
<polygon fill="#000000" stroke="#000000" points="275.1665,-215.2861 266.9667,-221.9953 277.5607,-221.864 275.1665,-215.2861"/>
</g>
<!-- ntq&#45;&gt;xhk -->
<g id="edge24" class="edge">
<title>ntq-&gt;xhk</title>
<path fill="none" stroke="#000000" d="M297.421,-221.8681C284.6572,-237.0795 265.1715,-260.3016 250.512,-277.772"/>
<polygon fill="#000000" stroke="#000000" points="247.5006,-275.9159 243.7539,-285.8261 252.863,-280.4154 247.5006,-275.9159"/>
</g>
<!-- ntq&#45;&gt;hfx -->
<g id="edge22" class="edge">
<title>ntq-&gt;hfx</title>
<path fill="none" stroke="#000000" d="M325.0064,-221.7603C334.3983,-232.0155 346.8292,-245.5889 357.3244,-257.0487"/>
<polygon fill="#000000" stroke="#000000" points="354.8849,-259.5672 364.2199,-264.578 360.0472,-254.8395 354.8849,-259.5672"/>
</g>
<!-- ntq&#45;&gt;bvb -->
<g id="edge23" class="edge">
<title>ntq-&gt;bvb</title>
<path fill="none" stroke="#000000" d="M311.1816,-224.1061C311.9249,-249.6692 313.2932,-296.7249 314.174,-327.0179"/>
<polygon fill="#000000" stroke="#000000" points="310.6851,-327.4552 314.4744,-337.3492 317.6822,-327.2517 310.6851,-327.4552"/>
</g>
<!-- rzs -->
<g id="node15" class="node">
<title>rzs</title>
<ellipse fill="none" stroke="#000000" cx="205.492" cy="-18" rx="27" ry="18"/>
<text text-anchor="middle" x="205.492" y="-13.8" font-family="Times,serif" font-size="14.00" fill="#000000">rzs</text>
</g>
<!-- rzs&#45;&gt;rsh -->
<g id="edge30" class="edge">
<title>rzs-&gt;rsh</title>
<path fill="none" stroke="#000000" d="M184.9334,-29.8695C163.8534,-42.0401 130.866,-61.0853 107.0102,-74.8585"/>
<polygon fill="#000000" stroke="#000000" points="104.9522,-72.0052 98.042,-80.0363 108.4523,-78.0673 104.9522,-72.0052"/>
</g>
<!-- rzs&#45;&gt;lsr -->
<g id="edge29" class="edge">
<title>rzs-&gt;lsr</title>
<path fill="none" stroke="#000000" d="M192.0761,-33.9885C160.9242,-71.1139 83.5593,-163.3138 46.888,-207.0168"/>
<polygon fill="#000000" stroke="#000000" points="44.0749,-204.9244 40.3281,-214.8347 49.4372,-209.424 44.0749,-204.9244"/>
</g>
<!-- rzs&#45;&gt;cmg -->
<g id="edge28" class="edge">
<title>rzs-&gt;cmg</title>
<path fill="none" stroke="#000000" d="M208.6469,-35.8926C209.9841,-43.476 211.5741,-52.4935 213.0602,-60.9212"/>
<polygon fill="#000000" stroke="#000000" points="209.6138,-61.5323 214.7972,-70.7726 216.5075,-60.3168 209.6138,-61.5323"/>
</g>
<!-- rzs&#45;&gt;qnr -->
<g id="edge27" class="edge">
<title>rzs-&gt;qnr</title>
<path fill="none" stroke="#000000" d="M223.0863,-32.1405C241.0471,-46.5754 269.1084,-69.1281 289.5027,-85.5188"/>
<polygon fill="#000000" stroke="#000000" points="287.4621,-88.3691 297.4493,-91.9054 291.8472,-82.9128 287.4621,-88.3691"/>
</g>
</g>
</svg>